<?xml version="1.0" encoding="UTF-8"?>
<svg version="1.1" xmlns="http://www.w3.org/2000/svg" width="537" height="512">
<path d="M0 0 C177.21 0 354.42 0 537 0 C537 168.96 537 337.92 537 512 C359.79 512 182.58 512 0 512 C0 343.04 0 174.08 0 0 Z " fill="#FDFDFA" transform="translate(0,0)"/>
<path d="M0 0 C26.68875 -0.0825 53.3775 -0.165 80.875 -0.25 C93.47212158 -0.30462402 93.47212158 -0.30462402 106.32373047 -0.36035156 C116.65258789 -0.37841797 116.65258789 -0.37841797 121.50222778 -0.3817749 C124.85821311 -0.38547146 128.21394018 -0.40033948 131.56985474 -0.42230225 C135.87290928 -0.45008315 140.17559741 -0.45790226 144.4787333 -0.4522891 C146.04398101 -0.45345989 147.60924379 -0.46118584 149.17441344 -0.47686052 C165.92770828 -0.63661604 181.32863274 3.20554488 197 9 C197.81597656 9.29390625 198.63195312 9.5878125 199.47265625 9.890625 C219.13643931 17.74186325 233.87588606 34.51978249 242.55859375 53.38671875 C250.85987132 74.19615438 251.12322379 99.86954137 244 121 C243.81953125 121.84949219 243.6390625 122.69898438 243.453125 123.57421875 C239.73124966 140.63281406 224.83612665 155.59008236 211 165 C195.00386847 175 195.00386847 175 190 175 C198.45304586 187.48530036 206.93193325 199.94890736 215.5625 212.3125 C220.09844949 218.81111472 224.59596311 225.32273705 228.9609375 231.9375 C231.70965997 236.06584946 234.51033725 240.15779871 237.3125 244.25 C237.86478271 245.05727539 238.41706543 245.86455078 238.98608398 246.69628906 C241.72633194 250.69736279 244.47654613 254.6910196 247.24609375 258.671875 C247.75293701 259.40245117 248.25978027 260.13302734 248.78198242 260.88574219 C249.73866172 262.26356403 250.69831838 263.63932482 251.66137695 265.01269531 C253.49870822 267.66156375 254.97454917 269.9236475 256 273 C247.09925518 273.4427992 238.20236092 273.77900772 229.29295826 273.98443127 C225.15396354 274.08310809 221.02256015 274.21647406 216.88793945 274.43334961 C190.40004018 275.78569286 190.40004018 275.78569286 183.33929443 271.31549072 C179.00893749 267.03558647 176.49086145 262.00548799 174.1076355 256.45993042 C172.5050365 252.90074328 170.35798307 249.85375441 168.109375 246.6796875 C167.30019212 245.46968445 166.49497299 244.25702301 165.69335938 243.04199219 C162.44764691 238.16171057 159.16878751 233.30383148 155.890625 228.4453125 C155.26901489 227.5240155 154.64740479 226.60271851 154.00695801 225.65350342 C152.08827683 222.81046306 150.16918561 219.96769986 148.25 217.125 C146.31017928 214.25133496 144.3704875 211.37758316 142.43109131 208.50363159 C141.23591683 206.73256167 140.04050031 204.96165506 138.8447876 203.19094849 C138.29691589 202.37915131 137.74904419 201.56735413 137.18457031 200.73095703 C136.64547028 199.95064621 136.10637024 199.17033539 135.55093384 198.36637878 C134 196 134 196 132.63925171 193.43110657 C130.10472531 188.76467609 130.10472531 188.76467609 125.66491699 186.19482422 C122.78405279 185.86093741 120.03163384 185.83031818 117.1328125 185.90234375 C115.7559729 185.88645203 115.7559729 185.88645203 114.35131836 185.87023926 C110.94257346 185.84391853 107.53358483 185.89526184 104.125 185.9375 C96.49375 185.958125 88.8625 185.97875 81 186 C81 214.71 81 243.42 81 273 C54.27 273 27.54 273 0 273 C0 182.91 0 92.82 0 0 Z " fill="#2B603D" transform="translate(69,63)"/>
<path d="M0 0 C62.37 0 124.74 0 189 0 C189 17.82 189 35.64 189 54 C142.8 54 96.6 54 49 54 C45.7 47.73 42.4 41.46 39 35 C35.43784033 30.54730041 31.81253181 26.23524322 28 22 C27.48824219 21.42121094 26.97648437 20.84242187 26.44921875 20.24609375 C19.1697749 12.46088208 9.67440887 6.3629687 0 2 C0 1.34 0 0.68 0 0 Z " fill="#8EBD46" transform="translate(274,63)"/>
<path d="M0 0 C44.88 0 89.76 0 136 0 C136 17.82 136 35.64 136 54 C80.89 54 25.78 54 -31 54 C-31 53.34 -31 52.68 -31 52 C-29.93240435 51.06088291 -28.81761249 50.17537146 -27.6875 49.3125 C-12.58675386 36.38047804 -6.11408567 18.34225701 0 0 Z " fill="#8EBD47" transform="translate(327,177)"/>
<path d="M0 0 C11.385 -0.103125 22.77 -0.20625 34.5 -0.3125 C39.84155273 -0.38078003 39.84155273 -0.38078003 45.29101562 -0.45043945 C49.72558594 -0.47302246 49.72558594 -0.47302246 51.8182373 -0.47721863 C53.24344755 -0.48476962 54.66863114 -0.5020821 56.09362793 -0.52787781 C71.65020241 -0.79477982 86.01382357 2.11230298 97.953125 12.73828125 C105.31841288 20.21188219 107.36488065 29.35761096 107.5 39.5625 C107.35203112 50.72798535 104.08644422 60.03796261 96 68 C82.62623494 78.54832174 66.2615667 79.16031776 50 79.09765625 C48.09541016 79.09614563 48.09541016 79.09614563 46.15234375 79.09460449 C41.43488657 79.08939479 36.71744233 79.07543359 32 79.0625 C21.44 79.041875 10.88 79.02125 0 79 C0 52.93 0 26.86 0 0 Z " fill="#FCFCF9" transform="translate(149,117)"/>
<path d="M0 0 C6.93 0 13.86 0 21 0 C21 89.76 21 179.52 21 272 C40.47 272 59.94 272 80 272 C80 243.29 80 214.58 80 185 C95.84 185 111.68 185 128 185 C128 185.33 128 185.66 128 186 C112.49 186 96.98 186 81 186 C81 214.71 81 243.42 81 273 C54.27 273 27.54 273 0 273 C0 182.91 0 92.82 0 0 Z " fill="#8CBA4B" transform="translate(69,63)"/>
<path d="M0 0 C4.434375 -0.061875 8.86875 -0.12375 13.4375 -0.1875 C14.81736084 -0.21481201 16.19722168 -0.24212402 17.61889648 -0.27026367 C25.97285419 -0.32642778 32.67783493 0.36911691 39.875 4.75 C43.62373393 8.71924769 44.8406773 12.56609573 45.4375 17.9375 C45.18338788 23.88603365 42.62456991 28.45279057 38.375 32.5 C36 34 36 34 34 34 C37.02185364 39.89052575 40.42242138 45.04800196 44.64453125 50.15234375 C46 52 46 52 46 54 C41.02623905 55.04557894 36.93028017 55.37036505 32 54 C28.99245141 51.04444978 27.03898398 47.41587733 24.92919922 43.796875 C22.34909738 39.37075922 22.34909738 39.37075922 18.09765625 36.71484375 C15.05355209 36.39073023 15.05355209 36.39073023 11 37 C11 42.61 11 48.22 11 54 C7.37 54 3.74 54 0 54 C0 36.18 0 18.36 0 0 Z " fill="#1B1B17" transform="translate(68,345)"/>
<path d="M0 0 C11 0 11 0 13.4987793 1.67724609 C14.01867432 2.45148926 14.53856934 3.22573242 15.07421875 4.0234375 C15.67548584 4.87558838 16.27675293 5.72773926 16.89624023 6.60571289 C17.48735596 7.51957764 18.07847168 8.43344238 18.6875 9.375 C19.96237214 11.21565434 21.23840227 13.0555072 22.515625 14.89453125 C23.11310547 15.77963379 23.71058594 16.66473633 24.32617188 17.57666016 C26.9167231 21.32721609 29.82295536 24.75391574 32.77734375 28.22265625 C34 30 34 30 34 33 C34.66 33 35.32 33 36 33 C36 22.11 36 11.22 36 0 C39.63 0 43.26 0 47 0 C47 17.82 47 35.64 47 54 C37 54 37 54 34.6953125 52.375 C34.17710937 51.59125 33.65890625 50.8075 33.125 50 C32.49335938 49.09894531 31.86171875 48.19789063 31.2109375 47.26953125 C30.48132813 46.19058594 29.75171875 45.11164063 29 44 C27.47067864 41.92670223 25.91819493 39.87214883 24.36279297 37.81835938 C22.80916413 35.76566902 21.27051678 33.70251206 19.734375 31.63671875 C18.08371611 29.41771579 16.40432544 27.27907599 14.640625 25.14453125 C13 23 13 23 13 21 C12.34 21 11.68 21 11 21 C11 31.89 11 42.78 11 54 C7.37 54 3.74 54 0 54 C0 36.18 0 18.36 0 0 Z " fill="#1A1B16" transform="translate(170,345)"/>
<path d="M0 0 C3.63 0 7.26 0 11 0 C11.8175507 2.54013909 12.62915186 5.08193231 13.4375 7.625 C13.66759766 8.33785156 13.89769531 9.05070312 14.13476562 9.78515625 C15.41873606 13.84175851 16.41945974 17.76939625 17 22 C19.64398953 15.81279607 21.74774395 9.68077411 23.38671875 3.15234375 C24 1 24 1 25 0 C26.85287502 -0.07226502 28.70833878 -0.0838122 30.5625 -0.0625 C31.57441406 -0.05347656 32.58632813 -0.04445313 33.62890625 -0.03515625 C34.41136719 -0.02355469 35.19382812 -0.01195312 36 0 C37.00674459 3.26879616 38.00422489 6.5403471 39 9.8125 C39.28617187 10.74126953 39.57234375 11.67003906 39.8671875 12.62695312 C40.13789063 13.51962891 40.40859375 14.41230469 40.6875 15.33203125 C40.93886719 16.15421143 41.19023437 16.9763916 41.44921875 17.82348633 C42 20 42 20 42 23 C42.66 23 43.32 23 44 23 C44.10957031 22.24976563 44.21914063 21.49953125 44.33203125 20.7265625 C47.0923994 2.9076006 47.0923994 2.9076006 50 0 C51.85287502 -0.07226502 53.70833878 -0.0838122 55.5625 -0.0625 C56.57441406 -0.05347656 57.58632813 -0.04445313 58.62890625 -0.03515625 C59.41136719 -0.02355469 60.19382812 -0.01195312 61 0 C60.34959949 4.60229055 59.18573321 8.90526078 57.75 13.3125 C55.59724163 20.04265227 53.56633693 26.80057798 51.61230469 33.59106445 C50.10382965 38.7923407 50.10382965 38.7923407 49 41 C45.37 41 41.74 41 38 41 C31 24.34482759 31 24.34482759 31 17 C30.34 17 29.68 17 29 17 C28.90203125 17.64324219 28.8040625 18.28648437 28.703125 18.94921875 C27.44853532 26.53083396 25.38984279 33.70285865 23 41 C19.04 41 15.08 41 11 41 C10.1157299 38.13496488 9.23302291 35.26944307 8.35546875 32.40234375 C7.31040577 28.99396744 6.24448827 25.59243832 5.17578125 22.19140625 C4.53366605 20.12766269 3.89173993 18.06386029 3.25 16 C2.93216553 14.99702881 2.61433105 13.99405762 2.28686523 12.96069336 C1.99110596 12.00428955 1.69534668 11.04788574 1.390625 10.0625 C1.12282227 9.20785156 0.85501953 8.35320312 0.57910156 7.47265625 C0 5 0 5 0 0 Z " fill="#1D1D19" transform="translate(271,358)"/>
<path d="M0 0 C5.5571922 3.97777968 8.66471284 8.54081629 9.85546875 15.328125 C9.85546875 17.968125 9.85546875 20.608125 9.85546875 23.328125 C0.28546875 23.328125 -9.28453125 23.328125 -19.14453125 23.328125 C-16.79532262 28.47274531 -16.79532262 28.47274531 -13.14453125 29.328125 C-11.64776419 29.44472098 -10.14578064 29.50311459 -8.64453125 29.515625 C-7.484375 29.53689453 -7.484375 29.53689453 -6.30078125 29.55859375 C-3.84773069 29.46474028 -3.84773069 29.46474028 -1.14453125 27.328125 C2.23040907 27.65473213 4.27904008 29.21177287 6.85546875 31.328125 C5.3491141 35.54591803 2.61534453 37.1028924 -1.14453125 39.328125 C-7.31362314 41.38448896 -14.26041042 41.05422795 -20.2578125 38.51171875 C-25.01539797 35.5271465 -29.10529821 30.56502862 -31.14453125 25.328125 C-32.03297028 18.2580207 -32.07325834 11.9015886 -27.70703125 6.046875 C-19.9880606 -2.44399271 -10.73970559 -6.08797682 0 0 Z " fill="#1F201C" transform="translate(150.14453125,359.671875)"/>
<path d="M0 0 C5.0709112 2.89031653 8.66047679 7.46489963 10.625 12.9375 C10.81279582 16.78731422 10.75 20.64560811 10.75 24.5 C1.51 24.5 -7.73 24.5 -17.25 24.5 C-14.16153068 30.59945786 -14.16153068 30.59945786 -10.55859375 31.15625 C-9.61113281 31.1046875 -8.66367188 31.053125 -7.6875 31 C-6.73746094 30.9690625 -5.78742188 30.938125 -4.80859375 30.90625 C-2.01576717 30.64527158 -2.01576717 30.64527158 0.75 28.5 C4.12494032 28.82660713 6.17357133 30.38364787 8.75 32.5 C6.90413444 37.19491892 3.95251633 38.46234158 -0.46875 40.5078125 C-7.03973683 42.85195668 -12.34685994 42.21222745 -18.625 39.3125 C-23.45315763 36.61841831 -26.06885141 33.92135462 -28.5 28.9375 C-30.0991536 21.60804598 -30.53917386 13.91358165 -26.66015625 7.25390625 C-20.0446656 -0.97422479 -9.92100049 -4.33924299 0 0 Z " fill="#1E1E1A" transform="translate(256.25,358.5)"/>
<path d="M0 0 C4.29166499 1.64052355 6.47123439 4.1363495 8.875 8.0625 C10.89176435 13.32849579 11.97023884 18.3726147 11 24 C8.33364613 29.2496725 4.33793833 33.48802902 -1 36 C-6.48190612 36.78312945 -11.94191326 36.24803855 -17 34 C-22.19323358 29.29330154 -25.57834622 24.72460839 -26.375 17.6875 C-25.75993267 11.63933787 -23.28001271 6.9827781 -19.1875 2.5 C-13.757835 -1.79897554 -6.49110113 -0.95078904 0 0 Z " fill="#F9F8F6" transform="translate(406,407)"/>
<path d="M0 0 C4.92619315 1.99808719 7.88825698 5.01799105 10 9.875 C11.47854001 14.86388017 11.64124243 19.55161981 10.3125 24.625 C7.59899359 29.53515445 4.26747164 33.84512524 -1 36 C-6.57306006 36.66245808 -11.77667488 36.10941976 -17 34 C-21.3578933 30.5542239 -24.42251062 26.33562585 -26 21 C-26.41134434 14.66333845 -25.19765749 9.8783587 -21 5 C-20.236875 4.05125 -19.47375 3.1025 -18.6875 2.125 C-13.55428959 -1.90542352 -6.06315552 -0.90233257 0 0 Z " fill="#F8F7F5" transform="translate(128,407)"/>
<path d="M0 0 C19.31553086 -0.85846804 19.31553086 -0.85846804 25.4296875 4.30859375 C29.9994321 9.23073159 30.55620499 13.79226754 30.34375 20.31640625 C29.65316796 25.70765468 27.21622711 29.28101734 22.96875 32.67578125 C18.48869588 35.7852252 14.34348267 35.57148405 9.0625 35.3125 C6.071875 35.209375 3.08125 35.10625 0 35 C0 23.45 0 11.9 0 0 Z " fill="#F7F7F5" transform="translate(242,407)"/>
<path d="M0 0 C1.65 0 3.3 0 5 0 C7.7762267 4.56094387 9.87477088 9.05587872 11.78515625 14.03515625 C13.57869005 18.41230143 15.637378 22.6609779 17.71411133 26.91015625 C19.10082437 29.80232459 20 31.74882914 20 35 C18.35 34.67 16.7 34.34 15 34 C14.34 31.36 13.68 28.72 13 26 C6.4 26.33 -0.2 26.66 -7 27 C-8.32 29.97 -9.64 32.94 -11 36 C-12.32 36 -13.64 36 -15 36 C-14.41276768 32.58549189 -13.55180905 29.67013131 -12.109375 26.5234375 C-11.54271118 25.27675293 -11.54271118 25.27675293 -10.96459961 24.00488281 C-10.56378174 23.13702148 -10.16296387 22.26916016 -9.75 21.375 C-9.34467041 20.48651367 -8.93934082 19.59802734 -8.52172852 18.68261719 C-7.71800588 16.92185229 -6.9121528 15.16205806 -6.10400391 13.40332031 C-4.70460296 10.35694638 -3.32083369 7.30369915 -1.9375 4.25 C-1.29209003 2.83314041 -0.64646612 1.41637802 0 0 Z " fill="#292826" transform="translate(296,407)"/>
<path d="M0 0 C5.6270076 1.12540152 5.6270076 1.12540152 8.0859375 4.24609375 C8.62476563 4.91962891 9.16359375 5.59316406 9.71875 6.28710938 C10.2653125 6.99673828 10.811875 7.70636719 11.375 8.4375 C12.18324219 9.44973633 12.18324219 9.44973633 13.0078125 10.48242188 C17.24668699 15.84661662 21.06790719 21.38272456 25 27 C25.33 18.09 25.66 9.18 26 0 C27.32 0 28.64 0 30 0 C30 11.55 30 23.1 30 35 C24.24236849 33.8484737 22.92487119 32.01027096 19.6875 27.5625 C18.72568558 26.28874135 17.76344254 25.01530624 16.80078125 23.7421875 C16.32979004 23.11022461 15.85879883 22.47826172 15.37353516 21.82714844 C13.42696752 19.23772217 11.40524601 16.71158963 9.375 14.1875 C8.74335938 13.39730469 8.11171875 12.60710937 7.4609375 11.79296875 C6.12368015 10.08984226 6.12368015 10.08984226 5 9 C4.67 17.91 4.34 26.82 4 36 C2.68 36 1.36 36 0 36 C0 24.12 0 12.24 0 0 Z " fill="#403F3C" transform="translate(196,407)"/>
<path d="M0 0 C4.29166499 1.64052355 6.47123439 4.1363495 8.875 8.0625 C10.89176435 13.32849579 11.97023884 18.3726147 11 24 C8.33364613 29.2496725 4.33793833 33.48802902 -1 36 C-6.48190612 36.78312945 -11.94191326 36.24803855 -17 34 C-22.19323358 29.29330154 -25.57834622 24.72460839 -26.375 17.6875 C-25.75993267 11.63933787 -23.28001271 6.9827781 -19.1875 2.5 C-13.757835 -1.79897554 -6.49110113 -0.95078904 0 0 Z M-18 7 C-20.76021681 11.71908034 -21.66602407 15.57666117 -21 21 C-19.62782606 24.99110808 -17.95906833 28.09734746 -14.875 31 C-10.50456186 32.5201524 -6.56014626 32.88787895 -2 32 C2.24307893 29.59869709 5.15377471 26.52455212 7 22 C7.45334816 16.37848283 7.18933562 12.83899198 4 8 C0.34834606 4.6222201 -2.25853268 3.16744878 -7.25 2.6875 C-11.72051886 3.06004324 -14.62174835 4.03202698 -18 7 Z " fill="#2A2925" transform="translate(406,407)"/>
<path d="M0 0 C4.92619315 1.99808719 7.88825698 5.01799105 10 9.875 C11.47854001 14.86388017 11.64124243 19.55161981 10.3125 24.625 C7.59899359 29.53515445 4.26747164 33.84512524 -1 36 C-6.57306006 36.66245808 -11.77667488 36.10941976 -17 34 C-21.3578933 30.5542239 -24.42251062 26.33562585 -26 21 C-26.41134434 14.66333845 -25.19765749 9.8783587 -21 5 C-20.236875 4.05125 -19.47375 3.1025 -18.6875 2.125 C-13.55428959 -1.90542352 -6.06315552 -0.90233257 0 0 Z M-19.9375 9.1875 C-21.98208404 14.59963422 -21.51348084 19.35145626 -19.8125 24.8125 C-17.76246004 28.4177427 -16.69158958 30.0772971 -13 32 C-8.36924922 32.82435966 -4.03651218 33.08879248 0.19921875 30.82421875 C3.59692984 28.06758523 6.04269602 25.36105147 7 21 C7.47696886 15.75334256 6.86233294 12.44155111 4 8 C0.34834606 4.6222201 -2.25853268 3.16744878 -7.25 2.6875 C-12.74212232 3.14517686 -16.20803568 4.97681447 -19.9375 9.1875 Z " fill="#1B1A17" transform="translate(128,407)"/>
<path d="M0 0 C62.37 0 124.74 0 189 0 C189 17.82 189 35.64 189 54 C142.8 54 96.6 54 49 54 C49 53.67 49 53.34 49 53 C94.87 53 140.74 53 188 53 C188 35.84 188 18.68 188 1 C128.6 1 69.2 1 8 1 C9.65 2.98 11.3 4.96 13 7 C9.51038791 7 7.88519705 6.09620626 4.8125 4.5 C3.91144531 4.0359375 3.01039063 3.571875 2.08203125 3.09375 C1.39496094 2.7328125 0.70789063 2.371875 0 2 C0 1.34 0 0.68 0 0 Z " fill="#9DBD67" transform="translate(274,63)"/>
<path d="M0 0 C0.33 0 0.66 0 1 0 C1 17.49 1 34.98 1 53 C-54.11 53 -109.22 53 -166 53 C-166 52.34 -166 51.68 -166 51 C-164.25 49.2734375 -164.25 49.2734375 -162 47.375 C-161.2575 46.74335938 -160.515 46.11171875 -159.75 45.4609375 C-159.1725 44.97882813 -158.595 44.49671875 -158 44 C-157.67 44.66 -157.34 45.32 -157 46 C-157.66 46.99 -158.32 47.98 -159 49 C-159.66 49 -160.32 49 -161 49 C-161 49.66 -161 50.32 -161 51 C-107.87 51 -54.74 51 0 51 C0 34.17 0 17.34 0 0 Z " fill="#9AB865" transform="translate(462,178)"/>
<path d="M0 0 C1.65 0 3.3 0 5 0 C6.82794904 1.87710397 8.20904175 3.56135057 9.6875 5.6875 C10.55272148 6.87548384 11.41862828 8.0629688 12.28515625 9.25 C12.94862061 10.17425781 12.94862061 10.17425781 13.62548828 11.1171875 C15.00398194 13.00545447 16.42574479 14.85001732 17.87109375 16.6875 C18.56295776 17.5678894 18.56295776 17.5678894 19.26879883 18.46606445 C20.16128221 19.5988998 21.05560342 20.73029007 21.9519043 21.86010742 C25 25.77750897 25 25.77750897 25 28 C25.66 28 26.32 28 27 28 C27 18.76 27 9.52 27 0 C27.99 0 28.98 0 30 0 C30 11.55 30 23.1 30 35 C26 35 26 35 24.46484375 33.5234375 C23.96082031 32.81445312 23.45679688 32.10546875 22.9375 31.375 C22.34195312 30.56417969 21.74640625 29.75335938 21.1328125 28.91796875 C20.42898438 27.95503906 19.72515625 26.99210937 19 26 C17.12254721 23.54799976 15.2185458 21.11730343 13.3125 18.6875 C12.84900146 18.08921387 12.38550293 17.49092773 11.90795898 16.87451172 C11.23615601 16.0143042 11.23615601 16.0143042 10.55078125 15.13671875 C10.15544189 14.62842529 9.76010254 14.12013184 9.3527832 13.59643555 C7.68394775 11.62702298 5.82532157 9.82532157 4 8 C4 16.91 4 25.82 4 35 C2.68 35 1.36 35 0 35 C0 23.45 0 11.9 0 0 Z " fill="#1B1A18" transform="translate(430,407)"/>
<path d="M0 0 C19.31553086 -0.85846804 19.31553086 -0.85846804 25.4296875 4.30859375 C29.9994321 9.23073159 30.55620499 13.79226754 30.34375 20.31640625 C29.65316796 25.70765468 27.21622711 29.28101734 22.96875 32.67578125 C18.48869588 35.7852252 14.34348267 35.57148405 9.0625 35.3125 C6.071875 35.209375 3.08125 35.10625 0 35 C0 23.45 0 11.9 0 0 Z M3 4 C3 13.24 3 22.48 3 32 C14.84839594 32.28022172 14.84839594 32.28022172 23.9375 26.5 C26.68782929 22.84507735 26.70004503 19.07594571 26.48828125 14.62890625 C25.70369867 10.40471362 24.24168739 8.80946241 21 6 C14.88582797 3.1953202 14.88582797 3.1953202 3 4 Z " fill="#1B1B19" transform="translate(242,407)"/>
<path d="M0 0 C2.75059381 -0.08107646 5.49879021 -0.14052813 8.25 -0.1875 C9.02730469 -0.21263672 9.80460937 -0.23777344 10.60546875 -0.26367188 C14.03796609 -0.30767825 16.40013907 -0.29295534 19.51953125 1.23046875 C21.38242935 3.45709893 21.50946687 4.62132507 21.4375 7.5 C21.43621094 8.2734375 21.43492188 9.046875 21.43359375 9.84375 C20.90106684 12.49199194 20.11870227 13.36486037 18 15 C14.37918537 16.20693821 11.0749281 16.10782079 7.3125 16.0625 C3.6928125 16.0315625 3.6928125 16.0315625 0 16 C0 10.72 0 5.44 0 0 Z " fill="#EFEEEC" transform="translate(79,356)"/>
<path d="M0 0 C1.32 0 2.64 0 4 0 C4.14620188 4.3329738 4.2343773 8.66530638 4.3125 13 C4.35439453 14.22074219 4.39628906 15.44148438 4.43945312 16.69921875 C4.53810448 23.99941902 4.18625794 29.51263514 -1 35 C-5.6387293 37.82849347 -10.95395875 37.2145166 -16.2109375 36.6796875 C-19.14259117 35.96525089 -20.2605989 35.38995392 -22.1875 33.125 C-24.69120084 28.80827442 -25.12161437 25.93094599 -25.09765625 21.01953125 C-25.09443359 19.85615234 -25.09121094 18.69277344 -25.08789062 17.49414062 C-25.07951172 16.27919922 -25.07113281 15.06425781 -25.0625 13.8125 C-25.05798828 12.58595703 -25.05347656 11.35941406 -25.04882812 10.09570312 C-25.03703065 7.06375332 -25.02056921 4.03190094 -25 1 C-24.01 1 -23.02 1 -22 1 C-21.97812622 1.99797607 -21.97812622 1.99797607 -21.95581055 3.01611328 C-21.88098635 6.05297114 -21.78443984 9.08877091 -21.6875 12.125 C-21.66494141 13.17171875 -21.64238281 14.2184375 -21.61914062 15.296875 C-21.38709969 21.96277823 -20.93404958 27.06595042 -16 32 C-13.73747702 32.43361729 -13.73747702 32.43361729 -11.1875 32.4375 C-10.33542969 32.47746094 -9.48335937 32.51742187 -8.60546875 32.55859375 C-5.77870371 31.95255567 -3.94620621 31.13081219 -1.98413086 28.96362305 C0.39591852 24.21474257 -0.21167076 18.37884209 -0.1875 13.1875 C-0.16236328 11.92228516 -0.13722656 10.65707031 -0.11132812 9.35351562 C-0.05249509 6.23536457 -0.01618494 3.11861633 0 0 Z " fill="#2C2B28" transform="translate(177,406)"/>
<path d="M0 0 C8.91 0 17.82 0 27 0 C27 0.99 27 1.98 27 3 C23.37 3 19.74 3 16 3 C16 13.89 16 24.78 16 36 C14.35 35.67 12.7 35.34 11 35 C11 24.77 11 14.54 11 4 C7.37 4 3.74 4 0 4 C0 2.68 0 1.36 0 0 Z " fill="#2E2D2B" transform="translate(322,407)"/>
<path d="M0 0 C8.25 0 16.5 0 25 0 C25 0.99 25 1.98 25 3 C17.74 3 10.48 3 3 3 C3 7.62 3 12.24 3 17 C9.27 17 15.54 17 22 17 C22 17.99 22 18.98 22 20 C15.73 20 9.46 20 3 20 C3 24.95 3 29.9 3 35 C2.01 35 1.02 35 0 35 C0 23.45 0 11.9 0 0 Z " fill="#0D0C09" transform="translate(67,407)"/>
<path d="M0 0 C1.32 0 2.64 0 4 0 C4 11.55 4 23.1 4 35 C-1.5755203 33.88489594 -2.78016817 32.40665592 -5.8125 28.0625 C-6.21919922 27.51142578 -6.62589844 26.96035156 -7.04492188 26.39257812 C-10 22.30513393 -10 22.30513393 -10 20 C-7.75 20.125 -7.75 20.125 -5 21 C-3.02 23.97 -3.02 23.97 -1 27 C-0.67 18.09 -0.34 9.18 0 0 Z " fill="#14130F" transform="translate(222,407)"/>
<path d="M0 0 C4.2855481 1.89288786 6.92282508 4.38423762 9.5 8.25 C10.27179122 12.4948517 10.1503102 16.69945803 10 21 C9.34 21 8.68 21 8 21 C7.67 21.66 7.34 22.32 7 23 C6.91363281 22.19175781 6.82726562 21.38351562 6.73828125 20.55078125 C5.9042803 13.74980761 5.9042803 13.74980761 2.625 7.875 C-2.18995256 4.43574817 -4.91653618 3.47556346 -11 4 C-15.69555028 5.74932265 -18.13304192 7.92009812 -21 12 C-21.66 11.67 -22.32 11.34 -23 11 C-22.8947506 7.42152052 -21.75428201 5.24933562 -19.375 2.6875 C-13.81034901 -1.74809137 -6.68849349 -1.09067227 0 0 Z " fill="#1D1C1B" transform="translate(128,407)"/>
<path d="M0 0 C3.0293678 1.36251318 4.59326548 2.65196633 7 5 C6.34 5.66 5.68 6.32 5 7 C2.38028353 6.72424037 0.42199654 6.23913137 -1.875 4.9375 C-5.0399227 3.54121057 -7.58135833 3.70011915 -11 4 C-13.76441969 5.40759341 -13.76441969 5.40759341 -16 7 C-16.66 7 -17.32 7 -18 7 C-18.99 11.62 -19.98 16.24 -21 21 C-21.66 21 -22.32 21 -23 21 C-23.66 21.99 -24.32 22.98 -25 24 C-26.66848725 18.99453824 -26.59470227 14.74972046 -24.4375 9.9375 C-18.62285216 -0.27796008 -11.57488011 -1.76609038 0 0 Z " fill="#292825" transform="translate(406,407)"/>
<path d="M0 0 C3.3 0 6.6 0 10 0 C10 0.33 10 0.66 10 1 C7.36 1 4.72 1 2 1 C2 17.5 2 34 2 51 C4.31 51 6.62 51 9 51 C9 40.44 9 29.88 9 19 C9.33 19 9.66 19 10 19 C10.33 30.22 10.66 41.44 11 53 C7.37 53 3.74 53 0 53 C0 35.51 0 18.02 0 0 Z " fill="#13130F" transform="translate(170,346)"/>
<path d="M0 0 C3.24623365 2.92715941 5.00516159 5.62910463 6.75 9.625 C7.17796875 10.58664062 7.6059375 11.54828125 8.046875 12.5390625 C9 15 9 15 9 17 C3.72 17 -1.56 17 -7 17 C-6.10465713 12.52328567 -4.99789901 9.67678319 -2.9375 5.6875 C-2.38964844 4.61886719 -1.84179688 3.55023438 -1.27734375 2.44921875 C-0.64505859 1.23685547 -0.64505859 1.23685547 0 0 Z " fill="#E6E5E3" transform="translate(298,413)"/>
<path d="M0 0 C0.99 0 1.98 0 3 0 C3.02187378 0.99797607 3.02187378 0.99797607 3.04418945 2.01611328 C3.11901365 5.05297114 3.21556016 8.08877091 3.3125 11.125 C3.33505859 12.17171875 3.35761719 13.2184375 3.38085938 14.296875 C3.61088162 20.90478684 4.30576164 25.45534562 8.3984375 30.83984375 C10.50488053 32.36573053 12.04620864 32.43230044 14.625 32.5625 C17.0390625 32.69140625 17.0390625 32.69140625 19 33 C19.33 33.66 19.66 34.32 20 35 C15.80514417 37.09742791 10.44218376 35.97728043 6 35 C2.68353073 32.68957267 1.272001 29.81600299 0 26 C-0.08291953 24.0079697 -0.10738177 22.01326287 -0.09765625 20.01953125 C-0.09443359 18.85615234 -0.09121094 17.69277344 -0.08789062 16.49414062 C-0.07951172 15.27919922 -0.07113281 14.06425781 -0.0625 12.8125 C-0.05798828 11.58595703 -0.05347656 10.35941406 -0.04882812 9.09570312 C-0.03703065 6.06375332 -0.02056921 3.03190094 0 0 Z " fill="#13120F" transform="translate(152,407)"/>
<path d="M0 0 C1.32 0 2.64 0 4 0 C4 12.21 4 24.42 4 37 C2.68 37 1.36 37 0 37 C0 24.79 0 12.58 0 0 Z " fill="#2A2B27" transform="translate(363,406)"/>
<path d="M0 0 C4.61871775 3.71827966 6.43992752 8.76889742 8.75 14.0625 C9.16121094 14.97322266 9.57242187 15.88394531 9.99609375 16.82226562 C13 23.59352938 13 23.59352938 13 27 C10.6875 27 10.6875 27 8 26 C7.01 23.36 6.02 20.72 5 18 C-1.27 17.67 -7.54 17.34 -14 17 C-12 15 -12 15 -8.3046875 14.8046875 C-6.82799892 14.817991 -5.35137642 14.84185165 -3.875 14.875 C-3.12089844 14.88402344 -2.36679687 14.89304687 -1.58984375 14.90234375 C0.27357254 14.9259313 2.13682593 14.96180281 4 15 C3.44119141 13.87851562 3.44119141 13.87851562 2.87109375 12.734375 C2.39800781 11.74953125 1.92492187 10.7646875 1.4375 9.75 C0.96183594 8.77546875 0.48617188 7.8009375 -0.00390625 6.796875 C-1.03510273 3.90143703 -1.11346788 2.80033839 0 0 Z " fill="#151512" transform="translate(303,415)"/>
<path d="M0 0 C0.99 0 1.98 0 3 0 C3 11.55 3 23.1 3 35 C-1 35 -1 35 -2.484375 33.5390625 C-2.90203125 32.90742188 -3.3196875 32.27578125 -3.75 31.625 C-4.17796875 30.99851562 -4.6059375 30.37203125 -5.046875 29.7265625 C-6 28 -6 28 -6 26 C-4.68 26 -3.36 26 -2 26 C-2 26.66 -2 27.32 -2 28 C-1.34 28 -0.68 28 0 28 C0 18.76 0 9.52 0 0 Z " fill="#121210" transform="translate(457,407)"/>
<path d="M0 0 C4.09159653 0.75151773 5.54905594 2.30980769 8.0625 5.5625 C8.0625 6.8825 8.0625 8.2025 8.0625 9.5625 C2.7825 9.5625 -2.4975 9.5625 -7.9375 9.5625 C-6.80945439 3.92227194 -5.87557539 1.12511018 0 0 Z " fill="#EFEFEC" transform="translate(246.9375,365.4375)"/>
<path d="M0 0 C3 2.3125 3 2.3125 5 5 C5 5.99 5 6.98 5 8 C-0.61 8 -6.22 8 -12 8 C-11 3 -11 3 -9.9375 1.1875 C-6.76552852 -0.75661155 -3.53948791 -0.75059179 0 0 Z " fill="#F0EFEE" transform="translate(143,367)"/>
<path d="M0 0 C14 0 14 0 17 2 C15.12175109 3.87824891 11.96064724 3.39102397 9.4375 3.5625 C8.23996094 3.64628906 7.04242188 3.73007812 5.80859375 3.81640625 C4.88175781 3.87699219 3.95492187 3.93757813 3 4 C2.98018066 4.83249268 2.96036133 5.66498535 2.93994141 6.52270508 C2.86179258 9.614765 2.77509794 12.70643383 2.68261719 15.7980957 C2.62555908 17.7929536 2.57835558 19.7880854 2.53125 21.78320312 C2.49257812 23.03681641 2.45390625 24.29042969 2.4140625 25.58203125 C2.3826416 26.73936768 2.3512207 27.8967041 2.31884766 29.08911133 C2 32 2 32 0 35 C0 23.45 0 11.9 0 0 Z " fill="#050403" transform="translate(242,407)"/>
<path d="M0 0 C0.33 0 0.66 0 1 0 C1.33 11.22 1.66 22.44 2 34 C1.01 34 0.02 34 -1 34 C-2.70523115 32.07388399 -4.19550317 30.20475316 -5.6875 28.125 C-6.10322266 27.56941406 -6.51894531 27.01382812 -6.94726562 26.44140625 C-10 22.28086515 -10 22.28086515 -10 20 C-7.75 20.125 -7.75 20.125 -5 21 C-3.02 23.97 -3.02 23.97 -1 27 C-0.67 18.09 -0.34 9.18 0 0 Z " fill="#1D1C19" transform="translate(222,407)"/>
<path d="M0 0 C0.33 0 0.66 0 1 0 C1 2.31 1 4.62 1 7 C1.66 7 2.32 7 3 7 C3.36351562 7.83144531 3.36351562 7.83144531 3.734375 8.6796875 C4.06953125 9.40414063 4.4046875 10.12859375 4.75 10.875 C5.07484375 11.59429687 5.3996875 12.31359375 5.734375 13.0546875 C7.21929686 15.3370674 8.50415408 16.00375898 11 17 C11 17.66 11 18.32 11 19 C13.97 19 16.94 19 20 19 C15.73024035 21.84650643 12.00424077 21.98419259 7 21 C2.64633499 18.35809915 0.39189403 15.3716291 -1 10.5 C-1 6.89610692 -0.65067797 3.54258003 0 0 Z " fill="#23221E" transform="translate(383,421)"/>
<path d="M0 0 C0.33 0 0.66 0 1 0 C1 4.62 1 9.24 1 14 C7.27 14 13.54 14 20 14 C20 14.99 20 15.98 20 17 C13.73 17 7.46 17 1 17 C1 21.95 1 26.9 1 32 C0.67 32 0.34 32 0 32 C-0.79688494 21.18688437 -1.12980563 10.81137083 0 0 Z " fill="#161513" transform="translate(69,410)"/>
<path d="M0 0 C5.79691323 0.28984566 10.0015733 2.92523103 14 7 C14.79296875 9.07421875 14.79296875 9.07421875 15 11 C14.67 11.66 14.34 12.32 14 13 C13.77377919 14.70363822 13.59111527 16.41328701 13.4375 18.125 C13.35371094 19.03507812 13.26992188 19.94515625 13.18359375 20.8828125 C13.12300781 21.58148438 13.06242187 22.28015625 13 23 C12.67 23 12.34 23 12 23 C11.97421875 22.26394531 11.9484375 21.52789062 11.921875 20.76953125 C11.58427036 14.58378397 11.58427036 14.58378397 9.25 8.9375 C4.96011794 5.2434349 0.73098627 4.71096886 -4.8125 4.375 C-5.97394531 4.30023438 -7.13539063 4.22546875 -8.33203125 4.1484375 C-9.21246094 4.09945313 -10.09289062 4.05046875 -11 4 C-11 3.67 -11 3.34 -11 3 C-4.565 2.505 -4.565 2.505 2 2 C1.34 1.34 0.68 0.68 0 0 Z " fill="#3C3B38" transform="translate(256,407)"/>
<path d="M0 0 C0.33 0.99 0.66 1.98 1 3 C1.66 3 2.32 3 3 3 C3 3.99 3 4.98 3 6 C8.61 6.33 14.22 6.66 20 7 C20 7.33 20 7.66 20 8 C10.595 8.495 10.595 8.495 1 9 C-0.32 11.97 -1.64 14.94 -3 18 C-4.32 18 -5.64 18 -7 18 C-6.35534798 13.66695924 -4.81074878 10.13327935 -2.9375 6.1875 C-2.11572266 4.44533203 -2.11572266 4.44533203 -1.27734375 2.66796875 C-0.85582031 1.78753906 -0.43429687 0.90710938 0 0 Z " fill="#282724" transform="translate(288,425)"/>
<path d="M0 0 C3.49275577 3.40590216 6.71340683 6.9202773 9.8125 10.6875 C10.60269531 11.64011719 11.39289063 12.59273438 12.20703125 13.57421875 C14 16 14 16 14 18 C12.68 18.33 11.36 18.66 10 19 C8.31063593 17.16281657 6.65064021 15.3089691 5 13.4375 C4.28457031 12.66696289 4.28457031 12.66696289 3.5546875 11.88085938 C0.89640145 8.82383041 0.01479591 7.18476395 -0.3125 3.09765625 C-0.209375 2.07542969 -0.10625 1.05320312 0 0 Z " fill="#23221F" transform="translate(440,415)"/>
<path d="M0 0 C1.32 0.33 2.64 0.66 4 1 C3.67 1.99 3.34 2.98 3 4 C2.67 3.67 2.34 3.34 2 3 C2 13.56 2 24.12 2 35 C1.34 35 0.68 35 0 35 C0 23.45 0 11.9 0 0 Z " fill="#090807" transform="translate(197,407)"/>
<path d="M0 0 C0.33 0.66 0.66 1.32 1 2 C1.66 2 2.32 2 3 2 C3.33 6.62 3.66 11.24 4 16 C2.68 16.33 1.36 16.66 0 17 C-2.77089332 12.11018825 -1.93280688 7.3235948 -1 2 C-0.67 1.34 -0.34 0.68 0 0 Z " fill="#252420" transform="translate(104,416)"/>
<path d="M0 0 C0.66 0 1.32 0 2 0 C3.17666109 3.52998328 3.02013769 6.13637416 2.87890625 9.85546875 C2.85529526 10.51710526 2.83168427 11.17874176 2.80735779 11.86042786 C2.73090143 13.96968002 2.64680043 16.0785482 2.5625 18.1875 C2.5092612 19.61912196 2.45652093 21.05076254 2.40429688 22.48242188 C2.27531118 25.98851576 2.13946876 29.49430571 2 33 C1.34 32.67 0.68 32.34 0 32 C0 21.44 0 10.88 0 0 Z " fill="#14130F" transform="translate(432,409)"/>
<path d="M0 0 C0.66 0.33 1.32 0.66 2 1 C2.4668668 8.17159286 2.53372098 13.20691208 -2 19 C-4.25 19.9375 -4.25 19.9375 -6 20 C-5.690625 19.4225 -5.38125 18.845 -5.0625 18.25 C-4.07416636 16.15705816 -3.4831387 14.25464725 -3 12 C-2.34 12 -1.68 12 -1 12 C-1.01160156 11.30132812 -1.02320313 10.60265625 -1.03515625 9.8828125 C-1.04417969 8.97273438 -1.05320312 8.06265625 -1.0625 7.125 C-1.07410156 6.22007812 -1.08570313 5.31515625 -1.09765625 4.3828125 C-1 2 -1 2 0 0 Z " fill="#141310" transform="translate(270,418)"/>
<path d="M0 0 C0 0.66 0 1.32 0 2 C2.97 2 5.94 2 9 2 C9 2.33 9 2.66 9 3 C8.00419922 3.12955078 8.00419922 3.12955078 6.98828125 3.26171875 C1.09928975 4.19879915 -2.12793749 5.15992186 -6 10 C-6.66 10.66 -7.32 11.32 -8 12 C-8.66 11.67 -9.32 11.34 -10 11 C-9.91563067 8.13144287 -9.41307819 6.44317685 -7.4453125 4.33203125 C-2.48559976 0 -2.48559976 0 0 0 Z " fill="#1E1D1A" transform="translate(115,407)"/>
<path d="M0 0 C0.99 0.66 1.98 1.32 3 2 C2.54738642 3.43931117 2.08767021 4.87638999 1.625 6.3125 C1.36976563 7.11300781 1.11453125 7.91351563 0.8515625 8.73828125 C0 11 0 11 -2 14 C-2.66 14 -3.32 14 -4 14 C-4.56561146 8.34388537 -2.71391278 4.77357872 0 0 Z " fill="#252422" transform="translate(293,414)"/>
<path d="M0 0 C0.66 0 1.32 0 2 0 C2.67354499 1.43429001 3.33859701 2.87257057 4 4.3125 C4.556875 5.51326172 4.556875 5.51326172 5.125 6.73828125 C6 9 6 9 6 12 C4.35 11.67 2.7 11.34 1 11 C-1.125 3.375 -1.125 3.375 0 0 Z " fill="#282725" transform="translate(310,430)"/>
<path d="M0 0 C2.10388569 -0.05402274 4.20816714 -0.09280256 6.3125 -0.125 C8.07013672 -0.15980469 8.07013672 -0.15980469 9.86328125 -0.1953125 C13 0 13 0 16 2 C14.00383446 3.99616554 10.18298037 3.40983427 7.4375 3.5625 C6.72658203 3.60568359 6.01566406 3.64886719 5.28320312 3.69335938 C3.52238088 3.79971777 1.7612168 3.90038846 0 4 C0 2.68 0 1.36 0 0 Z " fill="#0F0E0B" transform="translate(243,407)"/>
<path d="M0 0 C2.375 0.25 2.375 0.25 5 1 C7.66181082 4.2955753 7.15640774 7.93339881 7 12 C6.01 12.495 6.01 12.495 5 13 C4.35309078 11.3962669 3.70751236 9.79199694 3.0625 8.1875 C2.70285156 7.29417969 2.34320313 6.40085937 1.97265625 5.48046875 C1.26386514 3.6729091 0.6139753 1.84192591 0 0 Z " fill="#151411" transform="translate(409,413)"/>
<path d="M0 0 C3 0 3 0 5.625 2.3125 C8 5 8 5 9 8 C7.68 8.33 6.36 8.66 5 9 C4.34 7.68 3.68 6.36 3 5 C2.01 5 1.02 5 0 5 C0 3.35 0 1.7 0 0 Z " fill="#23221E" transform="translate(198,409)"/>
<path d="M0 0 C3.63 0 7.26 0 11 0 C10.01 0.33 9.02 0.66 8 1 C9.65 2.98 11.3 4.96 13 7 C9.51038791 7 7.88519705 6.09620626 4.8125 4.5 C3.91144531 4.0359375 3.01039063 3.571875 2.08203125 3.09375 C1.39496094 2.7328125 0.70789063 2.371875 0 2 C0 1.34 0 0.68 0 0 Z " fill="#95B95C" transform="translate(274,63)"/>
<path d="M0 0 C0.66 0.66 1.32 1.32 2 2 C1.7578125 5.0390625 1.7578125 5.0390625 1.125 8.625 C0.92132813 9.81351562 0.71765625 11.00203125 0.5078125 12.2265625 C0.34023438 13.14179688 0.17265625 14.05703125 0 15 C-2.47717167 11.28424249 -2.30345742 9.40013262 -2 5 C-1 2.0625 -1 2.0625 0 0 Z " fill="#43423F" transform="translate(382,416)"/>
<path d="M0 0 C0 3 0 3 -2 6 C-1.34 6.33 -0.68 6.66 0 7 C-3.44069624 9.29379749 -4.72290301 10 -9 10 C-8.67 9.34 -8.34 8.68 -8 8 C-7.34 8.33 -6.68 8.66 -6 9 C-6 8.34 -6 7.68 -6 7 C-7.32 6.67 -8.64 6.34 -10 6 C-8.906875 5.566875 -7.81375 5.13375 -6.6875 4.6875 C-3.90591207 3.50504359 -1.93638061 2.39199957 0 0 Z " fill="#32312F" transform="translate(266,432)"/>
<path d="M0 0 C1.32 0.66 2.64 1.32 4 2 C4 2.66 4 3.32 4 4 C-0.62 4 -5.24 4 -10 4 C-9.67 3.01 -9.34 2.02 -9 1 C-6.03 1.33 -3.06 1.66 0 2 C0 1.34 0 0.68 0 0 Z " fill="#2A2928" transform="translate(110,395)"/>
<path d="M0 0 C1.81325551 0.11351517 3.62563357 0.24112961 5.4375 0.375 C6.95150391 0.47941406 6.95150391 0.47941406 8.49609375 0.5859375 C9.73552734 0.79089844 9.73552734 0.79089844 11 1 C11.33 1.66 11.66 2.32 12 3 C9.37684968 4.31157516 7.76966564 3.89649988 4.875 3.5625 C3.96492187 3.46066406 3.05484375 3.35882813 2.1171875 3.25390625 C1.41851562 3.17011719 0.71984375 3.08632813 0 3 C0 2.01 0 1.02 0 0 Z " fill="#0F0E0A" transform="translate(160,439)"/>
<path d="M0 0 C0.66 0.33 1.32 0.66 2 1 C2 4.3 2 7.6 2 11 C1.34 11 0.68 11 0 11 C-0.33 11.66 -0.66 12.32 -1 13 C-1.02696365 11.20841511 -1.04637917 9.41671527 -1.0625 7.625 C-1.07410156 6.62726563 -1.08570313 5.62953125 -1.09765625 4.6015625 C-1 2 -1 2 0 0 Z " fill="#100F0C" transform="translate(136,417)"/>
<path d="M0 0 C3.96 0 7.92 0 12 0 C12 0.99 12 1.98 12 3 C11 4 11 4 8.93359375 4.09765625 C8.10988281 4.08605469 7.28617187 4.07445312 6.4375 4.0625 C5.61121094 4.05347656 4.78492188 4.04445313 3.93359375 4.03515625 C3.29550781 4.02355469 2.65742188 4.01195312 2 4 C3.32 3.34 4.64 2.68 6 2 C3.03 1.505 3.03 1.505 0 1 C0 0.67 0 0.34 0 0 Z " fill="#2D2D29" transform="translate(394,439)"/>
<path d="M0 0 C2.5625 2.25 2.5625 2.25 5 5 C4.8125 7.3125 4.8125 7.3125 4 9 C1.53199953 7.84826645 -0.04783565 6.95216435 -2 5 C-2 4.01 -2 3.02 -2 2 C-1.34 2 -0.68 2 0 2 C0 1.34 0 0.68 0 0 Z " fill="#282724" transform="translate(156,433)"/>
<path d="M0 0 C1.32 0 2.64 0 4 0 C4 0.66 4 1.32 4 2 C4.99 2 5.98 2 7 2 C7 3.65 7 5.3 7 7 C4.20171644 6.61402985 3.1794116 6.19863427 1.25 4.0625 C0 2 0 2 0 0 Z " fill="#171615" transform="translate(451,433)"/>
<path d="M0 0 C0.33 0.66 0.66 1.32 1 2 C1.66 2.33 2.32 2.66 3 3 C2.01 3 1.02 3 0 3 C0.09539062 3.61488281 0.19078125 4.22976563 0.2890625 4.86328125 C0.39992188 5.67152344 0.51078125 6.47976563 0.625 7.3125 C0.74101563 8.11300781 0.85703125 8.91351563 0.9765625 9.73828125 C1 12 1 12 -1 15 C-1.91457003 9.43842552 -2.32086397 5.324335 0 0 Z " fill="#3D3C39" transform="translate(104,416)"/>
<path d="M0 0 C0.66 0 1.32 0 2 0 C1.34 5.28 0.68 10.56 0 16 C-0.33 16 -0.66 16 -1 16 C-1.22127098 13.70954632 -1.4266504 11.41755236 -1.625 9.125 C-1.74101562 7.84882813 -1.85703125 6.57265625 -1.9765625 5.2578125 C-1.98816406 3.64519531 -1.98816406 3.64519531 -2 2 C-1.34 1.34 -0.68 0.68 0 0 Z " fill="#2D2D29" transform="translate(385,412)"/>
<path d="M0 0 C1.37351794 3.12163168 0.89111525 4.33811581 -0.1875 7.6875 C-2 11 -2 11 -4.1875 11.9375 C-4.785625 11.958125 -5.38375 11.97875 -6 12 C-4.43358249 7.69235185 -2.31663844 3.93828536 0 0 Z " fill="#9ABA64" transform="translate(318,201)"/>
<path d="M0 0 C0.33 1.32 0.66 2.64 1 4 C1.66 4 2.32 4 3 4 C2.34 5.65 1.68 7.3 1 9 C-0.32 9 -1.64 9 -3 9 C-2.44271087 5.65626525 -1.64826111 2.96687001 0 0 Z " fill="#3F3E3C" transform="translate(284,434)"/>
<path d="M0 0 C0.66 0 1.32 0 2 0 C2.33 0.99 2.66 1.98 3 3 C1.7260411 5.03833424 0.38938077 7.03852126 -1 9 C-1.33 9.99 -1.66 10.98 -2 12 C-2.66 12 -3.32 12 -4 12 C-2.66666667 8 -1.33333333 4 0 0 Z " fill="#A0BE6D" transform="translate(323,189)"/>
<path d="M0 0 C4.29 0.33 8.58 0.66 13 1 C13 1.33 13 1.66 13 2 C12.09507813 2.09087891 12.09507813 2.09087891 11.171875 2.18359375 C9.97304687 2.30927734 9.97304687 2.30927734 8.75 2.4375 C7.96109375 2.51871094 7.1721875 2.59992188 6.359375 2.68359375 C4.17635361 2.97634993 2.1226818 3.42064419 0 4 C0 2.68 0 1.36 0 0 Z " fill="#2F2E2A" transform="translate(112,438)"/>
<path d="M0 0 C0.33 0 0.66 0 1 0 C1.16682272 4.92127034 1.24828052 8.50343896 -1 13 C-1.99 12.01 -2.98 11.02 -4 10 C-3.67 9.01 -3.34 8.02 -3 7 C-2.01 7 -1.02 7 0 7 C0 4.69 0 2.38 0 0 Z " fill="#363532" transform="translate(138,421)"/>
<path d="M0 0 C3.40667322 0.44824648 5.07914607 1.05276405 8 3 C8 3.66 8 4.32 8 5 C6.68 5.33 5.36 5.66 4 6 C3.54625 5.360625 3.0925 4.72125 2.625 4.0625 C1.16078274 1.90297594 1.16078274 1.90297594 -1 1 C-0.67 0.67 -0.34 0.34 0 0 Z " fill="#191815" transform="translate(260,409)"/>
<path d="M0 0 C0 0.66 0 1.32 0 2 C2.97 2 5.94 2 9 2 C9 2.33 9 2.66 9 3 C6.87562788 3.19448477 4.75046809 3.38038289 2.625 3.5625 C1.44164063 3.66691406 0.25828125 3.77132813 -0.9609375 3.87890625 C-4 4 -4 4 -6 3 C-2.25 0 -2.25 0 0 0 Z " fill="#2E2D2C" transform="translate(115,407)"/>
<path d="M0 0 C2.475 0.495 2.475 0.495 5 1 C5.33 2.98 5.66 4.96 6 7 C2.58841744 5.86280581 1.88145399 4.95657056 0 2 C0 1.34 0 0.68 0 0 Z " fill="#1C1B18" transform="translate(297,407)"/>
<path d="M0 0 C0.33 0.99 0.66 1.98 1 3 C1.66 3.33 2.32 3.66 3 4 C1.0625 4.5625 1.0625 4.5625 -1 5 C-1.33 4.67 -1.66 4.34 -2 4 C-3.51469448 3.76807135 -5.03754562 3.58784762 -6.5625 3.4375 C-7.38878906 3.35371094 -8.21507812 3.26992188 -9.06640625 3.18359375 C-9.70449219 3.12300781 -10.34257812 3.06242187 -11 3 C-11 2.67 -11 2.34 -11 2 C-10.06027344 1.90912109 -10.06027344 1.90912109 -9.1015625 1.81640625 C-7.87566406 1.69072266 -7.87566406 1.69072266 -6.625 1.5625 C-5.81289062 1.48128906 -5.00078125 1.40007812 -4.1640625 1.31640625 C-1.95727195 1.10909886 -1.95727195 1.10909886 0 0 Z " fill="#363531" transform="translate(173,437)"/>
<path d="M0 0 C0.99 0 1.98 0 3 0 C1.95125002 2.62187494 1.35068687 3.79371361 -1.125 5.25 C-1.74375 5.4975 -2.3625 5.745 -3 6 C-3.99 5.01 -4.98 4.02 -6 3 C-5.195625 2.690625 -4.39125 2.38125 -3.5625 2.0625 C-1.10919595 1.23664655 -1.10919595 1.23664655 0 0 Z " fill="#1B1A17" transform="translate(410,435)"/>
<path d="M0 0 C0.99 0.99 1.98 1.98 3 3 C2.34 4.98 1.68 6.96 1 9 C-0.74627478 6.38058783 -1.38722388 4.96175123 -2 2 C-1.34 2 -0.68 2 0 2 C0 1.34 0 0.68 0 0 Z " fill="#252421" transform="translate(134,412)"/>
<path d="M0 0 C-1.20703125 1.51953125 -1.20703125 1.51953125 -3 3 C-5.26171875 3.07421875 -5.26171875 3.07421875 -7.6875 2.6875 C-8.89986328 2.50767578 -8.89986328 2.50767578 -10.13671875 2.32421875 C-10.75160156 2.21722656 -11.36648438 2.11023438 -12 2 C-12 1.67 -12 1.34 -12 1 C-7.58774263 -0.47075246 -4.51718381 -1.36884358 0 0 Z " fill="#2D2C2A" transform="translate(408,408)"/>
<path d="M0 0 C3.3 0 6.6 0 10 0 C9.67 0.66 9.34 1.32 9 2 C6.93359375 2.4140625 6.93359375 2.4140625 4.4375 2.625 C3.61121094 2.69976562 2.78492188 2.77453125 1.93359375 2.8515625 C0.97646484 2.92503906 0.97646484 2.92503906 0 3 C0 2.01 0 1.02 0 0 Z " fill="#0B0A08" transform="translate(393,407)"/>
<path d="M0 0 C3.63 0.33 7.26 0.66 11 1 C7.91111478 3.05925681 7.29064073 3.2390374 3.8125 3.125 C1.9253125 3.063125 1.9253125 3.063125 0 3 C0 2.01 0 1.02 0 0 Z " fill="#0A0906" transform="translate(392,439)"/>
<path d="M0 0 C1.32 0.33 2.64 0.66 4 1 C4 1.66 4 2.32 4 3 C0.79619983 5.13586678 -0.01939967 5.23132175 -3.6875 5.125 C-4.89986328 5.09792969 -4.89986328 5.09792969 -6.13671875 5.0703125 C-7.05904297 5.03550781 -7.05904297 5.03550781 -8 5 C-8 4.67 -8 4.34 -8 4 C-5.36 4 -2.72 4 0 4 C0 2.68 0 1.36 0 0 Z " fill="#2C2B28" transform="translate(126,438)"/>
<path d="M0 0 C1.9375 0.8125 1.9375 0.8125 4 2 C4.33 2.99 4.66 3.98 5 5 C3.68 5.33 2.36 5.66 1 6 C-0.0625 4.125 -0.0625 4.125 -1 2 C-0.67 1.34 -0.34 0.68 0 0 Z " fill="#252420" transform="translate(210,422)"/>
<path d="M0 0 C3 1 3 1 4.6875 4.0625 C5.120625 5.031875 5.55375 6.00125 6 7 C4.02 6.34 2.04 5.68 0 5 C0 3.35 0 1.7 0 0 Z " fill="#EBEAE9" transform="translate(435,416)"/>
<path d="M0 0 C3.7952131 1.49097658 5.61042731 3.75700849 8 7 C5 7 5 7 2.3125 4.625 C0 2 0 2 0 0 Z " fill="#40644B" transform="translate(243,125)"/>
<path d="M0 0 C1.98 0 3.96 0 6 0 C6.66 1.65 7.32 3.3 8 5 C2.25 3.125 2.25 3.125 0 2 C0 1.34 0 0.68 0 0 Z " fill="#9FBB6F" transform="translate(274,63)"/>
<path d="M0 0 C0.33 0.66 0.66 1.32 1 2 C1.99 2.33 2.98 2.66 4 3 C1.82586238 5.17413762 0.93446884 5.46646021 -2 6 C-2.99 6 -3.98 6 -5 6 C-3.35 4.02 -1.7 2.04 0 0 Z " fill="#33322E" transform="translate(411,431)"/>
<path d="M0 0 C2.125 0.9375 2.125 0.9375 4 2 C4 2.66 4 3.32 4 4 C2.68 4.33 1.36 4.66 0 5 C-0.66 3.68 -1.32 2.36 -2 1 C-1.34 0.67 -0.68 0.34 0 0 Z " fill="#2B2A27" transform="translate(203,413)"/>
<path d="M0 0 C1.9375 0.8125 1.9375 0.8125 4 2 C4.33 2.99 4.66 3.98 5 5 C4.01 5.33 3.02 5.66 2 6 C1.34 5.34 0.68 4.68 0 4 C0 2.68 0 1.36 0 0 Z " fill="#14130F" transform="translate(129,409)"/>
<path d="M0 0 C1.32 1.65 2.64 3.3 4 5 C3.01 6.485 3.01 6.485 2 8 C1.34 8 0.68 8 0 8 C0 5.36 0 2.72 0 0 Z " fill="#2B2A27" transform="translate(434,407)"/>
<path d="M0 0 C1.32 0.66 2.64 1.32 4 2 C4 2.66 4 3.32 4 4 C2.68 4.33 1.36 4.66 0 5 C-0.66 4.01 -1.32 3.02 -2 2 C-1.34 2 -0.68 2 0 2 C0 1.34 0 0.68 0 0 Z " fill="#2F2E2B" transform="translate(450,429)"/>
<path d="M0 0 C0.928125 0.2784375 0.928125 0.2784375 1.875 0.5625 C4.04160178 1.23686176 4.04160178 1.23686176 6 0 C6.33 1.32 6.66 2.64 7 4 C5.68 4.33 4.36 4.66 3 5 C2.01 3.35 1.02 1.7 0 0 Z " fill="#504F4B" transform="translate(298,412)"/>
<path d="M0 0 C0.66 0 1.32 0 2 0 C2.33 1.65 2.66 3.3 3 5 C2.34 5 1.68 5 1 5 C-0.62514468 6.45833358 -0.62514468 6.45833358 -2 8 C-1.34 5.36 -0.68 2.72 0 0 Z " fill="#B5B5B1" transform="translate(300,375)"/>
</svg>
